<svg xmlns="http://www.w3.org/2000/svg" xml:space="preserve" fill="none" viewBox="0 0 1024 1024">
  <path fill="#f2f2f2" d="M247.754 0h528.492C913.502 0 1024 110.498 1024 247.754v520.822C1024 895.86 913.502 1024 776.246 1024H247.754C117.27 1024 0 904.824 0 767.568V247.754C0 110.498 110.498 0 247.754 0Z"/>
  <path fill="#850122" d="m182.867 111.293 141.61 141.474c3.312 3.271 6.624 4.089 11.593 4.089h597.077c4.141 0 6.626-4.907 2.485-8.995L795.68 108.02c-3.313-3.27-6.626-4.906-13.25-4.906H186.18c-5.797 0-6.625 4.906-3.313 8.178zm-20.702 803.05c-.829 3.271.828 6.542 4.968 6.542H755.93c5.797 0 8.282-2.453 9.938-7.36l178.045-567.533c1.657-5.724-.828-7.36-5.797-7.36H347.664c-4.968 0-6.625 1.636-8.28 5.725zm-44.719-163.556c0 6.542 8.281 6.542 9.937 0L262.368 316.55c1.656-4.907 1.656-8.178-2.485-12.267l-134.156-131.66c-3.312-3.271-8.281-1.636-8.281 2.453z"/>
</svg>
