<?xml version="1.0" encoding="UTF-8" standalone="no"?>
<svg
   fill="none"
   viewBox="0 0 1024 1024"
   version="1.1"
   id="svg6"
   sodipodi:docname="tuta.svg"
   xml:space="preserve"
   inkscape:version="1.3.2 (091e20e, 2023-11-25, custom)"
   xmlns:inkscape="http://www.inkscape.org/namespaces/inkscape"
   xmlns:sodipodi="http://sodipodi.sourceforge.net/DTD/sodipodi-0.dtd"
   xmlns="http://www.w3.org/2000/svg"
   xmlns:svg="http://www.w3.org/2000/svg"><defs
     id="defs10" /><sodipodi:namedview
     id="namedview8"
     pagecolor="#ffffff"
     bordercolor="#000000"
     borderopacity="0.25"
     inkscape:showpageshadow="2"
     inkscape:pageopacity="0.0"
     inkscape:pagecheckerboard="0"
     inkscape:deskcolor="#d1d1d1"
     showgrid="false"
     inkscape:zoom="0.16296602"
     inkscape:cx="1288.6122"
     inkscape:cy="-236.24556"
     inkscape:window-width="1920"
     inkscape:window-height="1009"
     inkscape:window-x="3832"
     inkscape:window-y="-8"
     inkscape:window-maximized="1"
     inkscape:current-layer="svg6" /><path
     fill="#4ab7ee"
     d="M 247.754,0 H 776.246 C 913.502,0 1024,110.498 1024,247.754 V 768.57569 C 1024,895.86029 913.502,1024 776.246,1024 H 247.754 C 117.26968,1024 0,904.82403 0,767.56803 V 247.754 C 0,110.498 110.498,0 247.754,0 Z"
     id="path1045"
     style="fill:#850122;fill-opacity:1"
     sodipodi:nodetypes="sssssssss" /><g
     id="g3"
     transform="matrix(2.4902184,0,0,2.4902184,134.10929,118.17345)"
     style="fill:#f2f2f2;fill-opacity:1"><path
       d="M 25.284,3.80373 79.8294,58.2973 c 1.2759,1.26 2.5518,1.575 4.4657,1.575 H 314.279 c 1.595,0 2.552,-1.89 0.957,-3.4649 L 261.329,2.54376 C 260.053,1.28379 258.777,0.653809 256.225,0.653809 H 26.5599 c -2.2328,0 -2.5518,1.889951 -1.2759,3.149921 z"
       fill="#850122"
       id="path1"
       style="fill:#f2f2f2;fill-opacity:1" /><path
       d="m 17.3097,313.125 c -0.319,1.26 0.319,2.52 1.9139,2.52 H 246.018 c 2.233,0 3.19,-0.945 3.828,-2.835 l 68.58,-218.604 c 0.638,-2.2049 -0.319,-2.8349 -2.233,-2.8349 H 88.761 c -1.9138,0 -2.5518,0.63 -3.1897,2.2049 z"
       fill="#850122"
       id="path2-2"
       style="fill:#f2f2f2;fill-opacity:1" /><path
       d="m 0.0848389,250.126 c 0,2.52 3.1897911,2.52 3.8277511,0 L 55.9062,82.8657 c 0.6379,-1.89 0.6379,-3.1499 -0.957,-4.7249 L 3.27463,27.4271 c -1.27592,-1.26 -3.1897911,-0.63 -3.1897911,0.945 z"
       fill="#850122"
       id="path3"
       style="fill:#f2f2f2;fill-opacity:1" /></g></svg>
