<svg version="1.0" xmlns="http://www.w3.org/2000/svg"
 width="290.000000pt" height="287.000000pt" viewBox="0 0 290.000000 287.000000"
 preserveAspectRatio="xMidYMid meet">
<g transform="translate(0.000000,287.000000) scale(0.100000,-0.100000)"
fill="#000000" stroke="none">
<path d="M1865 2629 c-111 -8 -505 -32 -1130 -69 -187 -11 -357 -25 -377 -31
-48 -12 -94 -51 -118 -100 -19 -37 -20 -65 -20 -930 0 -980 -3 -934 61 -979
39 -28 132 -46 164 -32 l25 12 0 812 c0 766 2 815 19 853 24 54 72 100 123
119 32 12 242 28 846 65 442 28 807 53 812 56 6 4 10 31 10 62 0 69 -28 123
-80 152 -42 23 -121 26 -335 10z"/>
<path d="M2340 2293 c-25 -2 -191 -12 -370 -23 -1181 -73 -1291 -81 -1314 -90
-11 -4 -32 -20 -46 -35 l-25 -27 -3 -926 c-1 -510 0 -941 3 -959 7 -41 52 -89
96 -101 24 -6 223 2 664 29 347 21 761 46 920 55 314 18 332 22 365 77 19 31
20 57 20 975 0 1035 3 984 -60 1017 -28 14 -121 18 -250 8z m120 -463 c20 -20
20 -33 20 -691 l0 -671 -29 -29 c-19 -18 -40 -29 -58 -29 -15 0 -100 -4 -188
-10 -88 -5 -279 -16 -425 -25 -146 -8 -420 -24 -609 -36 -371 -22 -388 -21
-410 27 -8 18 -11 216 -11 684 0 644 0 660 20 680 11 11 30 22 42 24 13 3 307
21 653 41 347 20 682 40 745 44 203 14 228 13 250 -9z"/>
<path d="M2065 1621 c-28 -10 -111 -36 -185 -57 -74 -21 -141 -42 -147 -47
-21 -15 -15 -46 13 -74 23 -23 31 -25 85 -21 l59 4 0 -352 0 -352 -62 -21
c-78 -26 -98 -45 -98 -89 l0 -35 93 7 c50 4 166 11 257 16 l165 9 28 31 c44
49 37 66 -30 75 -32 3 -68 9 -80 12 l-23 5 0 454 c0 357 -3 454 -12 453 -7 0
-36 -9 -63 -18z"/>
<path d="M1275 1564 c-155 -32 -238 -93 -266 -197 -22 -81 15 -157 77 -157 31
0 34 2 34 30 0 39 25 99 48 116 21 17 83 18 117 2 50 -22 77 -111 52 -170 -17
-41 -60 -70 -139 -93 -32 -9 -58 -19 -58 -22 0 -4 5 -34 11 -69 l11 -62 76 -7
c130 -12 172 -42 172 -123 0 -80 -42 -127 -124 -138 -82 -12 -153 33 -181 112
-11 33 -18 40 -43 42 -24 2 -40 -5 -69 -32 -36 -32 -38 -38 -38 -93 0 -44 5
-65 23 -90 49 -69 179 -103 328 -84 134 16 197 43 270 116 72 72 94 125 94
230 0 123 -59 198 -179 228 l-53 14 31 13 c42 17 109 84 127 125 35 85 5 200
-66 256 -55 44 -176 69 -255 53z"/>
</g>
</svg>
