<svg xmlns="http://www.w3.org/2000/svg" xml:space="preserve" fill="none" viewBox="0 0 1024 1024">
  <defs>
    <radialGradient id="a" cx="0" cy="0" r="1" gradientTransform="matrix(99.55894 505.49445 -505.74055 99.6074 612.986 459.278)" gradientUnits="userSpaceOnUse">
      <stop stop-color="#1BA1E3"/>
      <stop offset="0" stop-color="#1BA1E3"/>
      <stop offset=".3" stop-color="#5489D6"/>
      <stop offset=".546" stop-color="#9B72CB"/>
      <stop offset=".825" stop-color="#D96570"/>
      <stop offset="1" stop-color="#F49C46"/>
    </radialGradient>
    <radialGradient id="b" cx="0" cy="0" r="1" gradientTransform="matrix(99.55894 505.49445 -505.74055 99.6074 612.986 459.278)" gradientUnits="userSpaceOnUse">
      <stop stop-color="#1BA1E3"/>
      <stop offset="0" stop-color="#1BA1E3"/>
      <stop offset=".3" stop-color="#5489D6"/>
      <stop offset=".546" stop-color="#9B72CB"/>
      <stop offset=".825" stop-color="#D96570"/>
      <stop offset="1" stop-color="#F49C46"/>
    </radialGradient>
  </defs>
  <path fill="#f9f9f9" d="M247.754 0h528.492C913.502 0 1024 110.498 1024 247.754v528.492C1024 913.502 913.502 1024 776.246 1024H247.754C110.498 1024 0 913.502 0 776.246V247.754C0 110.498 110.498 0 247.754 0Z"/>
  <path fill="url(#a)" d="M492.715 654.226 459.36 730.62c-12.822 29.365-53.458 29.365-66.279 0l-33.355-76.394c-29.683-67.985-83.11-122.1-149.754-151.683l-91.808-40.753c-29.189-12.956-29.189-55.419 0-68.375l88.94-39.48c68.359-30.344 122.744-86.465 151.92-156.77l33.787-81.411c12.538-30.213 54.28-30.213 66.819 0l33.787 81.413c29.175 70.303 83.56 126.424 151.918 156.768l88.941 39.48c29.19 12.956 29.19 55.419 0 68.375l-91.808 40.753c-66.643 29.582-120.07 83.698-149.754 151.683z"/>
  <path fill="url(#b)" d="m802.686 895.112-9.382 21.498c-6.865 15.739-28.658 15.739-35.523 0l-9.38-21.498c-16.722-38.333-46.839-68.853-84.42-85.55l-28.9-12.84c-15.627-6.942-15.627-29.658 0-36.601l27.284-12.123c38.548-17.126 69.204-48.775 85.638-88.41l9.633-23.232c6.714-16.191 29.1-16.191 35.813 0l9.633 23.232c16.434 39.635 47.092 71.284 85.64 88.41l27.282 12.123c15.63 6.943 15.63 29.659 0 36.602l-28.9 12.84c-37.58 16.696-67.698 47.216-84.418 85.549z"/>
</svg>
