<svg xmlns="http://www.w3.org/2000/svg" xml:space="preserve" fill="none" viewBox="0 0 1024 1024">
  <defs>
    <radialGradient id="a" cx="101.9" cy="809" r="1.1" gradientTransform="matrix(800 0 0 -800 -81274.026 648112)" gradientUnits="userSpaceOnUse">
      <stop offset="0" stop-color="#09f"/>
      <stop offset=".6" stop-color="#a033ff"/>
      <stop offset=".9" stop-color="#ff5280"/>
      <stop offset="1" stop-color="#ff7061"/>
    </radialGradient>
  </defs>
  <path fill="#f9f9f9" d="M247.754 0h528.492C913.502 0 1024 110.498 1024 247.754v528.492C1024 913.502 913.502 1024 776.246 1024H247.754C110.498 1024 0 913.502 0 776.246V247.754C0 110.498 110.498 0 247.754 0Z"/>
  <path fill="url(#a)" d="M511.973 111.994c-225.3 0-400 165.1-400 388 0 116.6 47.8 217.4 125.6 287 6.5 5.8 10.5 14 10.7 22.8l2.2 71.2a32 32 0 0 0 44.9 28.3l79.4-35c6.7-3 14.3-3.5 21.4-1.6 36.5 10 75.3 15.4 115.8 15.4 225.3 0 400-165.1 400-388s-174.7-388.1-400-388.1z"/>
  <path fill="#fff" d="m271.773 613.494 117.5-186.4a60 60 0 0 1 86.8-16l93.5 70.1a24 24 0 0 0 28.9-.1l126.2-95.8c16.8-12.8 38.8 7.4 27.6 25.3l-117.6 186.3a60 60 0 0 1-86.8 16l-93.5-70.1a24 24 0 0 0-28.9.1l-126.2 95.8c-16.8 12.8-38.8-7.3-27.5-25.2z"/>
</svg>
