<svg xmlns="http://www.w3.org/2000/svg" xml:space="preserve" fill="none" viewBox="0 0 1024 1024">
  <path fill="#ffda3e" d="M247.754 0C110.498 0 0 110.498 0 247.754v528.492C0 913.502 110.498 1024 247.754 1024h528.492C913.502 1024 1024 913.502 1024 776.246V247.754C1024 110.498 913.502 0 776.246 0H247.754z"/>
  <path fill="#fc0" d="M512 256.002 3.375 815.488C22.118 933.917 123.893 1024 247.754 1024h528.492c123.861 0 225.636-90.083 244.379-208.512L512 256.002z"/>
  <path fill="#f33" d="M247.754 0C130.879 0 33.674 80.228 7.303 188.764l431.92 421.386c40.76 39.797 104.798 39.797 145.554 0l431.92-421.386C990.327 80.228 893.121 0 776.247 0H247.753z"/>
</svg>
