<?xml version="1.0" encoding="UTF-8" standalone="no"?>
<svg
   fill="none"
   viewBox="0 0 1024 1024"
   version="1.1"
   id="svg6"
   sodipodi:docname="tuta.svg"
   xml:space="preserve"
   inkscape:version="1.2.2 (732a01da63, 2022-12-09)"
   xmlns:inkscape="http://www.inkscape.org/namespaces/inkscape"
   xmlns:sodipodi="http://sodipodi.sourceforge.net/DTD/sodipodi-0.dtd"
   xmlns="http://www.w3.org/2000/svg"
   xmlns:svg="http://www.w3.org/2000/svg"><defs
     id="defs10" /><sodipodi:namedview
     id="namedview8"
     pagecolor="#ffffff"
     bordercolor="#000000"
     borderopacity="0.25"
     inkscape:showpageshadow="2"
     inkscape:pageopacity="0.0"
     inkscape:pagecheckerboard="0"
     inkscape:deskcolor="#d1d1d1"
     showgrid="false"
     inkscape:zoom="0.4609375"
     inkscape:cx="412.20339"
     inkscape:cy="650.84746"
     inkscape:window-width="1920"
     inkscape:window-height="1009"
     inkscape:window-x="-8"
     inkscape:window-y="-8"
     inkscape:window-maximized="1"
     inkscape:current-layer="svg6" /><path
     fill="#4ab7ee"
     d="M 247.754,0 H 776.246 C 913.502,0 1024,110.498 1024,247.754 V 768.57569 C 1024,895.86029 913.502,1024 776.246,1024 H 247.754 C 117.26968,1024 0,904.82403 0,767.56803 V 247.754 C 0,110.498 110.498,0 247.754,0 Z"
     id="path1045"
     style="fill:#a01e20;fill-opacity:1"
     sodipodi:nodetypes="sssssssss" /><path
     id="path2"
     style="fill:#ffffff;fill-opacity:1"
     d="m 598.20117,292.16016 c 0,0 66.97862,11.63023 66.86524,37.79492 0,0.92739 -0.087,1.849 -0.22657,2.7793 -5.81436,30.06028 -104.65876,30.0479 -145.35937,32.95507 -40.7006,2.90719 -156.98962,-2.7e-4 -183.1543,49.42188 -1.47103,0.81693 -2.1623,3.37241 -2.1914,5.81445 -0.55529,46.59636 239.21258,77.08713 252.92578,177.41992 0.46225,3.28513 0.68554,6.57012 0.68554,9.82618 0,101.75147 -215.13167,191.87648 -479.68554,296.53515 -18.9053,7.40595 -38.160112,14.95759 -57.285432,22.18008 C 95.971445,986.03387 167.23564,1024 247.75391,1024 h 528.49218 c 129.74654,0 235.44441,-98.77567 246.63671,-225.51758 l -0.2051,-41.58984 C 1002.3276,672.58419 955.81118,591.18293 862.78125,544.66797 699.97884,460.35958 447.05359,445.82279 438.33203,413.84375 c -0.46224,-0.26746 -0.6873,-1.61255 -0.6582,-2.90625 0,-23.79823 67.98515,-27.33986 113.38086,-29.61328 46.51496,0 119.03456,-8.72215 127.91601,-40.70117 0.43898,-1.6571 0.63086,-3.28364 0.63086,-4.85352 0,-31.97905 -81.40039,-43.60937 -81.40039,-43.60937 z"
     sodipodi:nodetypes="cccscscsccsscccccccsc" /></svg>
