<svg xmlns="http://www.w3.org/2000/svg" enable-background="new 0 0 192 192" height="192" viewBox="0 0 192 192" width="192"><rect fill="none" height="192" width="192"/><g><path d="M52,56l0.24,51.95c-0.03,6.65,5.35,12.05,12,12.05H136l4-4l0.24-52c0-6.62-5.36-11.99-11.99-12L56,52.03 L52,56z" fill="#188038"/><path d="M54,105.95V54H31.97c-6.6,0.02-11.95,5.37-11.97,11.98v106.48c0,5.35,6.24,8.02,10.02,4.24l24-24.7H126 c6.63,0,12-5.37,12-12v-22H66C59.35,118,53.97,112.6,54,105.95z" fill="#34A853"/><path d="M138,118h22c6.63,0,12-5.37,12-12V32c0-6.63-5.37-12-12-12l-94,0c-6.66,0-12.05,5.43-12,12.09V54h72.26 c6.62,0.01,11.74,5.36,11.74,11.99V118z" fill="#5BB974"/></g></svg>