<svg xmlns="http://www.w3.org/2000/svg" xml:space="preserve" viewBox="0 0 1024 1024">
  <path fill="#f9f9f9" d="M247.754 0h528.492C913.502 0 1024 110.498 1024 247.754v528.492C1024 913.502 913.502 1024 776.246 1024H247.754C110.498 1024 0 913.502 0 776.246V247.754C0 110.498 110.498 0 247.754 0Z"/>
  <path d="m619.226 116.47-439.72 32.478c-35.474 3.067-47.815 26.248-47.815 54.03V685.03c0 21.64 7.684 40.155 26.224 64.901L261.28 884.335c16.982 21.64 32.423 26.28 64.846 24.739L836.76 878.16c43.175-3.076 55.548-23.181 55.548-57.161V278.687c0-17.562-6.937-22.624-27.36-37.612l-143.87-101.433c-33.956-24.69-47.839-27.813-101.853-23.18ZM337.671 269.81c-41.696 2.806-51.153 3.442-74.834-15.814l-60.205-47.887c-6.12-6.198-3.044-13.93 12.373-15.472l422.713-30.89c35.498-3.099 53.983 9.275 67.866 20.082l72.498 52.528c3.1 1.566 10.808 10.808 1.534 10.808l-436.54 26.28-5.405.374zm-48.61 546.557V355.986c0-20.106 6.175-29.38 24.659-30.937l501.394-29.356c17.006-1.533 24.69 9.274 24.69 29.348v457.313c0 20.106-3.098 37.112-30.857 38.646l-479.803 27.813c-27.758 1.534-40.075-7.708-40.075-32.446zm473.628-435.699c3.076 13.907 0 27.814-13.907 29.403l-23.125 4.586v339.907c-20.081 10.808-38.565 16.983-54.014 16.983-24.69 0-30.857-7.732-49.35-30.89L471.066 502.732v230.194l47.84 10.832s0 27.814-38.598 27.814l-106.407 6.174c-3.1-6.198 0-21.639 10.784-24.714l27.79-7.709V440.96l-38.566-3.123c-3.1-13.906 4.609-33.988 26.224-35.546l114.172-7.684L671.65 635.609V422.397l-40.108-4.61c-3.099-17.03 9.243-29.402 24.66-30.912l106.486-6.199z"/>
</svg>
