<svg xmlns="http://www.w3.org/2000/svg" fill="none" viewBox="0 0 1024 1024">
  <path fill="#f9f9f9" d="M247.754 0h528.492C913.502 0 1024 110.498 1024 247.754v528.492C1024 913.502 913.502 1024 776.246 1024H247.754C110.498 1024 0 913.502 0 776.246V247.754C0 110.498 110.498 0 247.754 0Z"/>
  <path fill="#5059c9" d="M820.77 203.23a86.841 86.841 0 0 0-86.842 86.842 86.841 86.841 0 0 0 86.842 86.842 86.841 86.841 0 0 0 86.841-86.842 86.841 86.841 0 0 0-86.841-86.842zM675.898 415.51c-10.583 0-19.161 8.578-19.162 19.162v212.762c.011 74.425 60.353 134.75 134.778 134.74h.636c74.426 0 134.758-60.335 134.758-134.76V452.176c0-20.25-16.415-36.666-36.666-36.666H675.898z"/>
  <path fill="#7b83eb" d="M550.596 126.04a125.438 125.438 0 0 0-125.438 125.437 125.438 125.438 0 0 0 125.438 125.437 125.438 125.438 0 0 0 125.437-125.437 125.438 125.438 0 0 0-125.437-125.438zM364.04 415.51c-20.009.495-35.837 17.1-35.373 37.11V675.3c-2.794 120.078 92.206 219.722 212.28 222.66C661.02 895.023 756.02 795.379 753.226 675.3V452.62c.463-20.01-15.364-36.615-35.373-37.11H364.04z"/>
  <path fill="#454cb6" d="M132.464 299.72h353.811c19.537 0 35.374 15.838 35.374 35.374v353.811c0 19.536-15.838 35.373-35.374 35.373h-353.81c-19.537 0-35.374-15.837-35.374-35.373v-353.81c0-19.537 15.838-35.374 35.373-35.374z"/>
  <path fill="#fff" d="M402.464 434.383h-70.728v192.595h-45.06V434.383h-70.4v-37.361h186.188z"/>
</svg>
