<svg xmlns="http://www.w3.org/2000/svg" xml:space="preserve" viewBox="0 0 1024 1024">
  <path fill="#de483a" d="M247.754 0h528.492C913.502 0 1024 110.498 1024 247.754v528.492C1024 913.502 913.502 1024 776.246 1024H247.754C110.498 1024 0 913.502 0 776.246V247.754C0 110.498 110.498 0 247.754 0Z"/>
  <path fill="#fff" d="M641.325 162.445a35.703 35.644 0 0 0-23.448 4.315c-5.426 3.145-367.569 211.002-379.68 217.886a47.22 47.141 0 0 1-46.867 0L0 273.692v94.318l1.961 1.12c47.745 27.782 160.735 93.477 188.388 109.028 16.766 9.435 32.799 9.226 48.935-.07l223.11-128.178.35-.175 229.9-132.093c9.696-5.591 10.152-22.716-.699-28.937l-7.595-4.332c-11.096-6.29-25.448-14.468-31.573-18.032a35.703 35.644 0 0 0-11.452-3.896zm-.07 188.427a35.703 35.644 0 0 0-23.447 4.315c-5.426 3.11-367.569 211-379.68 217.849a47.22 47.141 0 0 1-46.87 0C179.847 566.466 0 462.119 0 462.119v94.284l1.961 1.151c47.78 27.782 160.735 93.445 188.388 109.03 16.766 9.436 32.799 9.227 48.935-.068l222.83-128.042.84-.488 229.621-131.92c9.696-5.591 10.15-22.748-.702-28.934l-7.595-4.332c-11.061-6.29-25.448-14.468-31.573-18.032a35.703 35.644 0 0 0-11.45-3.896zm0 188.39a35.703 35.644 0 0 0-23.447 4.315c-5.426 3.145-367.569 211.036-379.68 217.886-14.491 8.247-32.414 8.352-46.87 0L0 650.546v94.28l1.961 1.155c47.78 27.781 160.735 93.445 188.388 109.03 16.732 9.436 32.799 9.224 48.935-.071l223.144-128.214 230.147-132.233c9.696-5.591 10.187-22.75-.664-28.971a4375.646 4368.427 0 0 1-39.206-22.364 35.703 35.644 0 0 0-11.45-3.897z"/>
</svg>
