<svg xmlns="http://www.w3.org/2000/svg" fill="none" viewBox="0 0 1024 1024">
  <defs>
    <linearGradient id="a" x1="308.378" x2="919.318" y1="811.629" y2="200.689" gradientTransform="rotate(-45 -3.161 -27.574)" gradientUnits="userSpaceOnUse">
      <stop offset="0" stop-color="#2987e6"/>
      <stop offset=".994" stop-color="#58c1f5"/>
    </linearGradient>
  </defs>
  <path fill="#f9f9f9" d="M247.754 0h528.492C913.502 0 1024 110.498 1024 247.754v528.492C1024 913.502 913.502 1024 776.246 1024H247.754C110.498 1024 0 913.502 0 776.246V247.754C0 110.498 110.498 0 247.754 0Z"/>
  <path fill="#195abd" d="m96.938 485.963 124.366-124.365c14.424-14.425 37.65-14.425 52.074 0l300.805 300.804c14.424 14.425 14.424 37.65 0 52.075L449.817 838.842c-14.424 14.424-37.65 14.424-52.074 0L96.938 538.037c-14.424-14.424-14.424-37.65 0-52.074z" class="j"/>
  <path fill="url(#a)" d="M709.037-518.46h203c23.545 0 42.5 18.956 42.5 42.5v779c0 23.546-18.955 42.5-42.5 42.5h-203c-23.545 0-42.5-18.954-42.5-42.5v-779c0-23.544 18.955-42.5 42.5-42.5z" class="k" transform="rotate(45 -57.227 95.386) scale(.8664)"/>
</svg>
