<svg xmlns="http://www.w3.org/2000/svg" xml:space="preserve" fill="none" viewBox="0 0 1024 1024">
  <path fill="#2970b8" d="M247.754 0C110.498 0 0 110.498 0 247.754v519.814C0 904.824 117.27 1024 247.754 1024h528.492C913.502 1024 1024 895.86 1024 768.576V247.754C1024 110.498 913.502 0 776.246 0H247.754z"/>
  <path fill="#f9f9f9" d="M90.878 55.703c-41.536 33.92-71.729 80.941-84.342 135.044l165.54 250.704 85.34-139.205Zm845.874 3.023L595.91 626.1c-19.915 31.246-8.536 73.852 28.445 96.586 34.133 19.885 79.645 5.68 99.557-28.403l296.178-490.797c-10.289-57.818-40.504-108.373-83.338-144.76Zm-400.57 271.922L356.979 626.111c-19.907 31.246-8.532 73.856 28.443 96.586 34.134 19.886 82.491 5.682 102.408-28.408l179.205-295.453c19.912-34.09 5.684-76.703-28.443-96.596-32.712-17.556-79.466-10.183-102.41 28.408zm-236.098.014L5.474 818.842c12.154 56.64 43.747 107.463 86.382 144.381l339.082-564.371c19.91-34.087 8.535-76.7-28.446-96.596-35.049-18.81-80.796-7.943-102.408 28.406zM851.93 583.49l-85.342 139.196L926.42 967.762c42.779-35.46 74.54-84.241 88.963-136.806z"/>
</svg>
