<svg xmlns="http://www.w3.org/2000/svg" xml:space="preserve" fill="none" viewBox="0 0 1024 1024">
  <path fill="#5865f2" d="M247.754 0h528.492C913.502 0 1024 110.498 1024 247.754v528.492C1024 913.502 913.502 1024 776.246 1024H247.754C110.498 1024 0 913.502 0 776.246V247.754C0 110.498 110.498 0 247.754 0Z"/>
  <path fill="#fff" d="M807.031 243.843a702.983 702.983 0 0 0-175.361-53.952 481.76 481.76 0 0 0-22.464 45.662 653.042 653.042 0 0 0-194.616 0 483.832 483.832 0 0 0-22.463-45.662 707.93 707.93 0 0 0-175.495 54.086C105.652 408.174 75.567 568.292 90.61 726.137A706.861 706.861 0 0 0 305.683 834.11a519.466 519.466 0 0 0 46.064-74.276 457.424 457.424 0 0 1-72.539-34.631c6.084-4.413 12.034-8.96 17.784-13.372a505.225 505.225 0 0 0 430.013 0c5.816 4.747 11.766 9.293 17.783 13.372a459.162 459.162 0 0 1-72.671 34.697 514.786 514.786 0 0 0 46.063 74.21 703.652 703.652 0 0 0 215.208-107.905c17.65-183.05-30.153-341.697-126.357-482.36ZM370.8 629.063c-41.918 0-76.549-38.04-76.549-84.839 0-46.798 33.427-85.173 76.415-85.173 42.988 0 77.352 38.375 76.616 85.173-.735 46.799-33.761 84.84-76.482 84.84zm282.397 0c-41.985 0-76.483-38.04-76.483-84.839 0-46.798 33.428-85.173 76.483-85.173 43.054 0 77.15 38.375 76.415 85.173-.735 46.799-33.694 84.84-76.415 84.84z"/>
</svg>
