<svg xmlns="http://www.w3.org/2000/svg" fill="none" viewBox="0 0 1024 1024">
  <path fill="#ea4335" d="M781.476 1024 1024 781.476l-121.266-13.025-121.258 13.025-20.612 121.262Z"/>
  <path fill="#188038" d="M0 781.477c2.757 133.038 109.485 239.504 242.523 242.261l13.822-127.512-13.822-114.749-123.638-13.026Z"/>
  <path fill="#1967d2" d="m781.477.262-19.338 125.565 19.338 116.696 119.399 15.178 122.862-15.178C1020.981 109.485 914.515 3.02 781.477.262Z"/>
  <path fill="#fff" d="M781.476 242.524H242.529l-.01 538.952h538.952Z"/>
  <path fill="#1a73e8" d="M353.08 660.613c-20.142-13.609-34.089-33.48-41.702-59.755l46.756-19.267c4.244 16.169 11.653 28.698 22.23 37.591 10.512 8.894 23.312 13.271 38.268 13.271 15.293 0 28.431-4.649 39.408-13.947 10.978-9.298 16.507-21.156 16.507-35.502 0-14.684-5.796-26.68-17.382-35.973-11.587-9.293-26.138-13.947-43.52-13.947h-27.013v-46.28h24.248c14.956 0 27.556-4.04 37.796-12.124 10.24-8.084 15.36-19.133 15.36-33.213 0-12.529-4.582-22.503-13.742-29.978-9.16-7.475-20.752-11.248-34.832-11.248-13.742 0-24.657 3.64-32.742 10.982-8.085 7.342-13.947 16.369-17.649 27.013l-46.28-19.266c6.13-17.383 17.383-32.743 33.885-46.014 16.507-13.27 37.59-19.942 63.19-19.942 18.93 0 35.974 3.64 51.068 10.982 15.088 7.342 26.946 17.516 35.502 30.449 8.555 13 12.8 27.556 12.8 43.72 0 16.506-3.973 30.448-11.925 41.902-7.951 11.453-17.72 20.208-29.307 26.342v2.76c15.294 6.4 27.756 16.169 37.592 29.307 9.768 13.137 14.684 28.835 14.684 47.16 0 18.324-4.65 34.693-13.947 49.044-9.298 14.352-22.165 25.667-38.467 33.884-16.368 8.218-34.76 12.396-55.173 12.396-23.644.067-45.47-6.738-65.613-20.347zM640 428.6l-51.067 37.12-25.666-38.937 92.093-66.427h35.302v313.328H640Z"/>
  <path fill="#34a853" d="M242.524 1024h538.947V781.476H242.523z"/>
  <path fill="#4285f4" d="M247.757 0C110.5 0 0 110.499 0 247.755v533.726l242.527-.01V242.525h538.955L781.606.27c-1.798-.039-3.543-.27-5.35-.27Z"/>
  <path fill="#fbbc04" d="m781.481 242.525-.01 538.946h242.525V242.524Z"/>
</svg>
