<svg xmlns="http://www.w3.org/2000/svg" xml:space="preserve" viewBox="0 0 1024 1024">
  <path fill="#242424" d="M247.754 0h528.492C913.502 0 1024 110.498 1024 247.754v528.492C1024 913.502 913.502 1024 776.246 1024H247.754C110.498 1024 0 913.502 0 776.246V247.754C0 110.498 110.498 0 247.754 0Z"/>
  <path fill="#fff" d="M113.928 262.152v309.069c0 112.133 78.493 190.627 198.336 190.627 119.842 0 198.334-78.494 198.334-190.627V262.152h-98.116V560.71c0 69.382-32.938 111.432-100.218 111.432s-100.221-42.05-100.221-111.432V262.152h-98.115zm657.38 117.74c-56.066 0-92.509 21.026-111.431 61.674v-53.263h-93.211v364.433h94.611V552.998c0-63.075 35.742-90.406 75.69-90.406 46.956 0 78.494 27.331 78.494 90.406v199.738h94.613V529.871c0-91.809-60.272-149.978-138.765-149.978z"/>
</svg>
