<svg xmlns="http://www.w3.org/2000/svg" xml:space="preserve" fill="none" viewBox="0 0 1024 1024">
  <path fill="#0757fa" d="M247.754 0h528.492C913.502 0 1024 110.498 1024 247.754v528.492C1024 913.502 913.502 1024 776.246 1024H247.754C110.498 1024 0 913.502 0 776.246V247.754C0 110.498 110.498 0 247.754 0Z"/>
  <path fill="#fff" d="M512.006 879.079c-99.86 0-193.498-37.828-263.653-106.53C177.63 703.313 138.68 610.336 138.68 510.76c0-99.588 39.01-192.093 109.825-260.713 69.978-67.793 163.545-105.126 263.488-105.126 99.943 0 193.51 37.333 263.488 105.126 70.828 68.608 109.837 161.195 109.837 260.713 0 26.2-3.046 55.975-7.745 75.87-17.12 72.374-69.069 116.472-136.437 116.472-2.196 0-4.404-.048-6.636-.142-80.155-3.4-138.373-62.339-138.645-140.215l-1.251-52.846c0-49.257-33.614-85.008-79.907-85.008-46.306 0-80.014 35.75-80.014 85.008V617.42h-85.29V509.9c0-46.849 17.06-90.037 48.029-121.608 30.791-31.394 72.433-48.679 117.275-48.679 44.83 0 86.471 17.285 117.24 48.69 30.815 31.453 47.828 74.43 47.97 121.054l1.24 52.834c0 39.222 30.696 54.429 56.966 55.539 29.21 1.24 48.218-15.833 56.46-50.745 3.175-13.365 5.466-37.026 5.466-56.247 0-157.311-126.52-280.537-288.022-280.537-161.515 0-288.022 123.226-288.022 280.525 0 76.472 29.847 147.795 84.04 200.866 54.132 52.988 126.566 82.174 203.982 82.174 23.755 0 47.344-2.88 70.13-8.584a286.853 286.853 0 0 0 55.315-20.07l37.19 76.742a372.002 372.002 0 0 1-162.635 37.215h-.012z"/>
</svg>
