<svg xmlns="http://www.w3.org/2000/svg" xml:space="preserve" fill="none" viewBox="0 0 1024 1024">
  <linearGradient id="a" x1="0" x2="0" y1="0" y2="1">
    <stop offset="0" stop-color="#50adff"/>
    <stop offset="1" stop-color="#7877fc"/>
  </linearGradient>
  <path fill="url(#a)" d="M247.754 0C110.498 0 0 110.498 0 247.754v528.492C0 913.502 110.498 1024 247.754 1024h528.492C913.502 1024 1024 913.502 1024 776.246V247.754C1024 110.498 913.502 0 776.246 0Z"/>
  <path fill="#fff" d="M811.295 745.798c0 54.889-40.265 99.79-89.47 99.79h-419.65c-49.205 0-89.47-44.901-89.47-99.79 0-33.601 15.105-63.48 38.104-81.577l223.294-199.414c4.154-3.556 9.539 2.177 6.547 6.963l-81.909 164c-2.293 4.587.681 10.237 5.401 10.237h317.7c49.205 0 89.453 44.918 89.453 99.79zm0-467.61c0 33.602-15.105 63.48-38.104 81.578L549.897 559.18c-4.155 3.556-9.539-2.177-6.548-6.963l81.91-164.002c2.293-4.586-.681-10.236-5.401-10.236H302.175c-49.205 0-89.47-44.901-89.47-99.79s40.265-99.79 89.47-99.79h419.667c49.205 0 89.453 44.901 89.453 99.79z"/>
</svg>
