<?xml version="1.0" encoding="UTF-8" standalone="no"?>
<svg
   fill="none"
   viewBox="0 0 1024 1024"
   version="1.1"
   id="svg1086"
   sodipodi:docname="proton.svg"
   xml:space="preserve"
   inkscape:version="1.2.2 (732a01da63, 2022-12-09)"
   xmlns:inkscape="http://www.inkscape.org/namespaces/inkscape"
   xmlns:sodipodi="http://sodipodi.sourceforge.net/DTD/sodipodi-0.dtd"
   xmlns="http://www.w3.org/2000/svg"
   xmlns:svg="http://www.w3.org/2000/svg"><defs
     id="defs1090"><linearGradient
       id="paint0_linear_11985_190892"
       x1="265.975"
       y1="141.754"
       x2="244.3"
       y2="-73.4041"
       gradientUnits="userSpaceOnUse"><stop
         offset="0.271"
         stop-color="#E3D9FF"
         id="stop1235" /><stop
         offset="1"
         stop-color="#7341FF"
         id="stop1237" /></linearGradient><linearGradient
       id="paint1_linear_11985_190892"
       x1="62.6346"
       y1="86.7984"
       x2="18.553"
       y2="-87.2799"
       gradientUnits="userSpaceOnUse"><stop
         stop-color="#E3D9FF"
         id="stop1240" /><stop
         offset="1"
         stop-color="#7341FF"
         id="stop1242" /></linearGradient><radialGradient
       id="paint2_radial_11985_190892"
       cx="0"
       cy="0"
       r="1"
       gradientUnits="userSpaceOnUse"
       gradientTransform="matrix(123.614,0,0,125.045,105.538,10.5272)"><stop
         offset="0.5561"
         stop-color="#6D4AFF"
         id="stop1245" /><stop
         offset="0.9944"
         stop-color="#AA8EFF"
         id="stop1247" /></radialGradient></defs><sodipodi:namedview
     id="namedview1088"
     pagecolor="#ffffff"
     bordercolor="#000000"
     borderopacity="0.25"
     inkscape:showpageshadow="2"
     inkscape:pageopacity="0.0"
     inkscape:pagecheckerboard="0"
     inkscape:deskcolor="#d1d1d1"
     showgrid="false"
     inkscape:zoom="0.32593203"
     inkscape:cx="644.30611"
     inkscape:cy="619.76112"
     inkscape:window-width="1920"
     inkscape:window-height="1009"
     inkscape:window-x="-8"
     inkscape:window-y="-8"
     inkscape:window-maximized="1"
     inkscape:current-layer="svg1086" /><path
     fill="#4ab7ee"
     d="M247.754 0h528.492C913.502 0 1024 110.498 1024 247.754v528.492C1024 913.502 913.502 1024 776.246 1024H247.754C110.498 1024 0 913.502 0 776.246V247.754C0 110.498 110.498 0 247.754 0Z"
     id="path1082"
     style="fill:#f9f9f9" /><g
     style="fill:none"
     id="g1278"
     transform="matrix(7.5471698,0,0,7.5471698,112,187.4717)"><path
       fill-rule="evenodd"
       clip-rule="evenodd"
       d="M 83.4613,16.1551 V 86 h 11.578 C 101.094,86 106,81.026 106,74.9015 V 2.47101 c 0,-2.092612 -2.404,-3.232042 -3.997,-1.895402 z"
       fill="url(#paint0_linear_11985_190892)"
       id="path1229"
       style="fill:url(#paint0_linear_11985_190892)" /><path
       fill-rule="evenodd"
       clip-rule="evenodd"
       d="M 67.3128,29.7407 46.1604,48.6618 c -3.6066,3.2211 -8.9895,3.2978 -12.6827,0.1862 L 0,20.6691 V 2.482 C 0,0.38939 2.40441,-0.760996 3.99653,0.575643 L 45.998,35.8761 c 4.0615,3.4183 9.9534,3.4183 14.0149,0 z"
       fill="url(#paint1_linear_11985_190892)"
       id="path1231"
       style="fill:url(#paint1_linear_11985_190892)" /><path
       d="m 83.4613,16.1661 -16.1485,13.5746 0.0108,-10e-5 -21.1632,18.9212 c -3.6066,3.2211 -8.9895,3.2978 -12.6827,0.1862 L 0,20.6691 V 74.9015 C 0,81.0259 4.9063,86 10.9607,86 h 72.5006 z"
       fill="url(#paint2_radial_11985_190892)"
       id="path1233"
       style="fill:url(#paint2_radial_11985_190892)" /></g></svg>
