<svg xmlns="http://www.w3.org/2000/svg" xml:space="preserve" fill="none" viewBox="0 0 1024 1024">
  <path fill="#f9f9f9" d="M247.754 0h528.492C913.502 0 1024 110.498 1024 247.754v528.492C1024 913.502 913.502 1024 776.246 1024H247.754C110.498 1024 0 913.502 0 776.246V247.754C0 110.498 110.498 0 247.754 0Z"/>
  <path fill="#e01e5a" d="M266.196 624.251c0 49.364-39.896 89.26-89.26 89.26-49.363 0-89.26-39.896-89.26-89.26 0-49.363 39.897-89.26 89.26-89.26h89.26zm44.63 0c0-49.363 39.897-89.26 89.26-89.26 49.364 0 89.26 39.897 89.26 89.26v223.15c0 49.364-39.896 89.26-89.26 89.26-49.363 0-89.26-39.896-89.26-89.26z"/>
  <path fill="#36c5f0" d="M400.087 265.858c-49.364 0-89.26-39.896-89.26-89.26 0-49.363 39.896-89.26 89.26-89.26 49.363 0 89.26 39.897 89.26 89.26v89.26Zm0 45.307c49.363 0 89.26 39.896 89.26 89.26 0 49.363-39.897 89.26-89.26 89.26H176.26c-49.363 0-89.26-39.897-89.26-89.26 0-49.364 39.897-89.26 89.26-89.26Z"/>
  <path fill="#2eb67d" d="M757.804 400.425c0-49.364 39.896-89.26 89.26-89.26 49.363 0 89.26 39.896 89.26 89.26 0 49.363-39.897 89.26-89.26 89.26h-89.26Zm-44.63 0c0 49.363-39.897 89.26-89.26 89.26-49.364 0-89.26-39.897-89.26-89.26V176.598c0-49.363 39.896-89.26 89.26-89.26 49.363 0 89.26 39.897 89.26 89.26z"/>
  <path fill="#ecb22e" d="M623.913 758.142c49.364 0 89.26 39.896 89.26 89.26 0 49.363-39.896 89.26-89.26 89.26-49.363 0-89.26-39.897-89.26-89.26v-89.26Zm0-44.63c-49.363 0-89.26-39.897-89.26-89.26 0-49.364 39.897-89.26 89.26-89.26H847.74c49.363 0 89.26 39.896 89.26 89.26 0 49.363-39.897 89.26-89.26 89.26z"/>
</svg>
