<svg xmlns="http://www.w3.org/2000/svg" fill="none" viewBox="0 0 1024 1024">
  <path fill="#fbbc04" d="M247.754 0h456.245L1024 319.997v456.249C1024 913.502 913.502 1024 776.246 1024H247.754C110.498 1024 0 913.502 0 776.246V247.754C0 110.498 110.498 0 247.754 0Z"/>
  <path fill="#f29900" d="M704 0v319.997l.015.003h319.969l.016-.003z"/>
  <path fill="#fff" d="M511.999 287c-95.03 0-172.058 77.03-172.058 172.06 0 61.344 32.093 115.147 80.403 145.587h183.312c48.307-30.44 80.403-84.243 80.403-145.587 0-95.03-77.028-172.057-172.058-172.057zm-92.643 383.825V737h185.291v-66.175z"/>
</svg>
