<svg xmlns="http://www.w3.org/2000/svg" fill="none" viewBox="0 0 1024 1024">
  <path fill="#f9f9f9" d="M247.754 0h528.492C913.502 0 1024 110.498 1024 247.754v528.492C1024 913.502 913.502 1024 776.246 1024H247.754C110.498 1024 0 913.502 0 776.246V247.754C0 110.498 110.498 0 247.754 0Z"/>
  <path fill="#f29900" d="M608.533 87.256v212.371l.01.002h212.354l.007-.002z"/>
  <path fill="#fbbc04" d="M261.013 87.255c-32 0-57.918 25.918-57.918 57.919v733.653c0 32 25.918 57.918 57.918 57.918h501.974c32 0 57.918-25.918 57.918-57.918v-579.2H608.533V87.256ZM512 376.855c69.311 0 125.492 56.182 125.492 125.493 0 44.742-23.41 83.983-58.643 106.185h-133.7c-35.235-22.202-58.643-61.443-58.643-106.185 0-69.311 56.182-125.495 125.493-125.495zM444.427 656.8h135.146v48.267H444.427Z"/>
</svg>
