<svg xmlns="http://www.w3.org/2000/svg" xml:space="preserve" fill="none" viewBox="0 0 1024 1024">
  <path fill="#25d366" d="M247.754 0h528.492C913.502 0 1024 110.498 1024 247.754v528.492C1024 913.502 913.502 1024 776.246 1024H247.754C110.498 1024 0 913.502 0 776.246V247.754C0 110.498 110.498 0 247.754 0Z"/>
  <path fill="#fff" d="M140.825 508.613c-.01 77.196 17.135 129.78 49.75 186.288l-52.88 193.082L335.29 836.17c54.441 29.69 115.738 45.356 178.117 45.36 264.934.02 372.89-228.52 372.898-372.616.012-211.384-174.585-372.897-370.648-372.897-224.374 0-374.813 177.84-374.832 372.596zm372.858-309.658c169.517 0 308.601 150.339 309.684 309.937 1.16 170.762-155.888 312.257-309.8 309.708-62.954-1.043-118.372-7.497-169.123-49.887l-117.257 30.744 31.306-114.283c-49.057-64.476-54.182-122.401-54.737-176.535.067-170.762 139.039-309.684 309.927-309.684zM381.6 336.538c-6.21 0-16.3 2.333-24.834 11.653-8.538 9.32-32.601 31.848-32.601 77.67 0 92.042 166.266 274.16 308.885 260.2 17.077-1.552 55.101-22.525 62.863-44.273 7.762-21.744 7.762-40.383 5.434-44.279-2.329-3.881-8.54-6.208-17.854-10.866-9.314-4.657-55.1-27.192-63.64-30.297-31.689-13.487-39.585 58.565-70.62 43.507-9.315-4.672-39.31-14.496-74.894-46.224-27.687-24.684-46.379-55.17-51.813-64.493-7.946-25.024 39.86-40.046 26.59-67.158-2.329-4.657-20.429-50.715-28.71-69.13-6.976-15.51-14.321-15.82-20.958-16.092-5.429-.233-11.643-.218-17.848-.218z"/>
</svg>
