<svg xmlns="http://www.w3.org/2000/svg" fill="none" viewBox="0 0 1024 1024">
  <path fill="#4ab7ee" d="M247.754 0h528.492C913.502 0 1024 110.498 1024 247.754v528.492C1024 913.502 913.502 1024 776.246 1024H247.754C110.498 1024 0 913.502 0 776.246V247.754C0 110.498 110.498 0 247.754 0Z"/>
  <path fill="#111" d="M524.129 84.81c-154.455-5.922-307.712 80.056-382.174 215.576-87.78 146.508-72.284 345.309 36.05 477.156 48.23 67.487 130.43 110.62 213.757 107.784 112.196-3.548 211.981-92.259 233.068-201.71 4.104-23.365 5.054-35.235 3.168-50.678-177.332 5-251.934-126.55-248.841-249.411-3.038-124.896 99.489-240.223 223.58-252.808 47.238-5.449 96.167.24 139.663 20.037-65.17-40.83-141.358-64.038-218.271-65.945Zm-1.055 8.868c35.672-.278-35.653 3.04-48.084 8.403-150.064 28.982-275.904 153.596-303.82 304.146-28.07 137.427 25.492 292.123 140.76 374.412 62.632 40.27 146.064 46.12 213.343 13.91-91.776 54.404-217.168 24.443-281.88-58.226-110.338-122.41-127.489-316.415-40.954-456.532C268.042 167.81 393.047 94.466 523.074 93.678Zm32.186 12.383c24.111-.188 44.876 1.315 8.519 1.733C414.24 114.61 277.322 229.785 248.614 377.3c-27.077 123.798 20.66 265.042 126.008 338.155 56.419 35.241 132.273 39.725 190.474 6.088-80.79 55.694-197.783 28.42-256.511-46.853-107.571-117.199-113.268-310.242-15.256-435.05 61.2-80.99 160.332-131.915 261.93-133.58Zm46.678 14.996c23.05.836 48.444 4.163 10.708 2.896-139.881-.49-272.386 109.005-291.637 248.777-17.484 106.23 28.867 224.212 121.13 282.141 41.853 23.955 94.029 31.39 140.023 15.47-77.4 34.92-170.591-1.68-217.857-68.674-89.835-109.987-82.845-284.134 15.901-386.404 56.05-61.201 138.554-97.14 221.731-94.206zm30.476 16.423c-111.416 1.006-213.257 86.102-237.037 194.372-4.638 28.561-3.73 51.882-3.73 51.882 193.957 18.93 252.488 138.039 246.457 261.955-.654 124.727-105.56 237.137-229.73 247.156-45.264 4.566-91.837-1.695-133.411-20.548 147.617 94.796 352.872 86.758 491.375-21.567 134.259-101.415 200.241-285.906 153.45-448.76-21.881-79.4-65.442-154.652-128.085-208.548-46.132-33.558-101.384-57.146-159.289-55.942Zm-30.934 64.475c89.922-1.039 166.678 60.702 210.979 134.826 86.995 134.362 77.142 321.584-22.786 446.449-72.491 94.07-190.965 151.205-309.911 146.903 161.384-3.457 312.833-118.233 358.068-273.35 46.118-146.8-4.82-323.044-131.448-413.422-62.633-40.27-146.066-46.12-213.347-13.91 32.783-18.778 70.735-28.006 108.445-27.496zm-53.203 70.953c73.44-3.282 140.405 40.621 181.103 99.392 99.723 129.877 84.973 330.151-31.79 444.708-68.83 69.984-169.066 108.502-267.131 99.851 150.255 3.916 295.397-101.85 334.816-247.393 38.328-129.065-7.67-283.207-119.69-360.919-56.419-35.242-132.273-39.725-190.474-6.088 27.274-18.753 60.157-28.74 93.166-29.55zM689.98 478.78c58.264 119.447 24.062 275.177-80.51 357.87-62.336 51.987-147.107 75.863-227.365 63.143 144.57 16.817 288.942-92.122 314.48-235.04 23.507-110.246-22.961-235.129-119.466-295.623-41.852-23.954-94.028-31.392-140.022-15.472C580.52 302.48 652.778 401.73 689.979 478.78Z"/>
</svg>
