<svg xmlns="http://www.w3.org/2000/svg" fill="none" viewBox="0 0 1024 1024">
  <path fill="#4ea4f6" d="M247.754 0h528.492C913.502 0 1024 110.498 1024 247.754v528.492C1024 913.502 913.502 1024 776.246 1024H247.754C110.498 1024 0 913.502 0 776.246V247.754C0 110.498 110.498 0 247.754 0Z"/>
  <path fill="#fff" d="M160.122 474.693S469.52 347.715 576.825 303.004c41.133-17.884 180.63-75.113 180.63-75.113s64.383-25.038 59.018 35.768c-1.788 25.038-16.096 112.67-30.403 207.457-21.461 134.132-44.71 280.782-44.71 280.782s-3.577 41.134-33.98 48.288c-30.404 7.153-80.48-25.038-89.422-32.192-7.153-5.365-134.131-85.844-180.63-125.19-12.52-10.73-26.827-32.191 1.788-57.229C503.5 526.557 580.402 453.232 626.9 406.733c21.462-21.461 42.923-71.537-46.498-10.73-126.978 87.632-252.168 169.9-252.168 169.9s-28.615 17.884-82.267 1.788c-53.653-16.096-116.248-37.557-116.248-37.557s-42.922-26.826 30.403-55.441z" class="st1"/>
</svg>
