<svg xmlns="http://www.w3.org/2000/svg" xmlns:xlink="http://www.w3.org/1999/xlink" viewBox="0 0 1024 1024">
  <defs>
    <linearGradient id="a">
      <stop offset="0" stop-color="#359cfe"/>
      <stop offset="1" stop-color="#155bc2"/>
    </linearGradient>
    <linearGradient xlink:href="#a" id="b" x1="512" x2="512" y1="0" y2="1024" gradientUnits="userSpaceOnUse"/>
  </defs>
  <path fill="url(#b)" d="M247.754 0h528.492C913.502 0 1024 110.498 1024 247.754v528.492C1024 913.502 913.502 1024 776.246 1024H247.754C110.498 1024 0 913.502 0 776.246V247.754C0 110.498 110.498 0 247.754 0Z"/>
  <path fill="#dfebfa" d="M179.541 170.645a8.868 8.868 0 0 0-8.874 8.875v664.96a8.868 8.868 0 0 0 8.874 8.875h248.214a8.868 8.868 0 0 0 8.874-8.875V179.52a8.868 8.868 0 0 0-8.874-8.875H179.54m416.704 0a8.868 8.868 0 0 0-8.874 8.875v412.245a8.868 8.868 0 0 0 8.874 8.875H844.46a8.868 8.868 0 0 0 8.874-8.875V179.52a8.868 8.868 0 0 0-8.874-8.875H596.245"/>
</svg>
